<?xml version="1.0" encoding="UTF-8" standalone="no"?>
<!-- Created with Inkscape (http://www.inkscape.org/) -->

<svg
   xmlns:dc="http://purl.org/dc/elements/1.1/"
   xmlns:cc="http://creativecommons.org/ns#"
   xmlns:rdf="http://www.w3.org/1999/02/22-rdf-syntax-ns#"
   xmlns:svg="http://www.w3.org/2000/svg"
   xmlns="http://www.w3.org/2000/svg"
   xmlns:sodipodi="http://sodipodi.sourceforge.net/DTD/sodipodi-0.dtd"
   xmlns:inkscape="http://www.inkscape.org/namespaces/inkscape"
   width="85.729691mm"
   height="90.000038mm"
   id="svg2"
   version="1.1"
   inkscape:version="0.92.3 (2405546, 2018-03-11)"
   sodipodi:docname="3.5-disk-fullsize.svg"
   viewBox="0 0 85.729692 90.000038">
  <sodipodi:namedview
     id="base"
     pagecolor="#ffffff"
     bordercolor="#666666"
     borderopacity="1.0"
     inkscape:pageopacity="0"
     inkscape:pageshadow="2"
     inkscape:zoom="1"
     inkscape:cx="28.796107"
     inkscape:cy="10.122883"
     inkscape:document-units="mm"
     inkscape:current-layer="g836"
     showgrid="true"
     inkscape:window-width="1920"
     inkscape:window-height="1137"
     inkscape:window-x="-8"
     inkscape:window-y="-8"
     inkscape:window-maximized="1"
     borderlayer="true"
     fit-margin-top="0"
     fit-margin-left="0"
     fit-margin-right="0"
     fit-margin-bottom="0"
     showguides="false">
    <inkscape:grid
       enabled="false"
       id="grid824"
       units="mm"
       type="xygrid"
       empspacing="1"
       spacingy="2.54"
       spacingx="2.54"
       originx="50.504503"
       originy="81.113161" />
  </sodipodi:namedview>
  <metadata
     id="metadata26">
    <rdf:RDF>
      <cc:Work
         rdf:about="">
        <dc:format>image/svg+xml</dc:format>
        <dc:type
           rdf:resource="http://purl.org/dc/dcmitype/StillImage" />
        <dc:title></dc:title>
      </cc:Work>
    </rdf:RDF>
  </metadata>
  <defs
     id="defs24" />
  <g
     id="g830"
     sodipodi:insensitive="true"
     inkscape:groupmode="layer"
     inkscape:label="[fixed] BG"
     transform="translate(50.504502,-61.113131)">
    <rect
       id="rect828"
       style="fill:#ffffff;fill-opacity:1;stroke:none;stroke-width:0.40126887"
       height="43.679317"
       width="41.519215"
       y="107.43385"
       x="-50.504467" />
  </g>
  <g
     id="g832"
     inkscape:groupmode="layer"
     inkscape:label="Edge.Cuts"
     transform="translate(50.504502,-61.113131)">
    <path
       inkscape:connector-curvature="0"
       style="fill:none;fill-opacity:1;fill-rule:evenodd;stroke:#000000;stroke-width:0.12828468px;stroke-linecap:butt;stroke-linejoin:miter;stroke-opacity:1"
       d="M-49.840958 61.663076L-49.767868 61.596256L-49.688628 61.535626L-49.603798 61.480766L-49.513938 61.431476L-49.32131 61.348156L-49.115214 61.283806L-48.900077 61.236576L-48.680346 61.204196L-48.460463 61.185636L-48.244866 61.177336L-48.038001 61.177274L-47.8443 61.183474L-47.514193 61.208424L-47.290074 61.235444L-47.207474 61.247814L32.26714 61.247814L32.567149 61.231314L32.88726 61.225114L33.271971 61.235424L33.477114 61.249864L33.684683 61.272754L33.8901 61.305134L34.088792 61.348234L34.276183 61.403504L34.447699 61.472184L34.598764 61.555714L34.665194 61.603354L34.724804 61.655324L34.815404 61.762156L34.892724 61.891262L34.957774 62.038518L35.011594 62.200004L35.055214 62.371802L35.089654 62.549787L35.115934 62.729835L35.135094 62.908026L35.156134 63.242692L35.161034 63.521611L35.155034 63.783392L35.155034 148.99106L35.160034 149.20039L35.156534 149.42363L35.140304 149.69176L35.104854 149.9792L35.077884 150.12212L35.043664 150.2603L35.001384 150.39044L34.950224 150.50944L34.889374 150.614L34.818014 150.701L34.730834 150.773L34.625945 150.8345L34.506567 150.8863L34.375918 150.9292L34.237219 150.964L34.09369 150.9916L33.80502 151.0283L33.535662 151.0448L33.311375 151.0488L33.101037 151.0448L-46.649675 151.0448L-50.368072 147.23344L-50.368072 65.010498L-50.381892 64.903047L-50.410582 64.612083L-50.435352 64.18496L-50.440352 63.9351L-50.437252 63.668947L-50.423842 63.392379L-50.397672 63.111336L-50.356382 62.831715L-50.297642 62.559417L-50.219082 62.300379L-50.171622 62.177666L-50.118332 62.060522L-50.058912 61.949565L-49.993062 61.845619L-49.920482 61.749509L-49.840892 61.661859L-49.840892 61.661859"
       id="rect2826"
       sodipodi:nodetypes="cccaccaccccs" />
    <path
       id="rect3603"
       d="M-47.235603 67.597677L-42.445176 67.597677L-42.445176 71.214942L-47.235603 71.214942L-47.235603 67.597677"
       style="fill:none;fill-rule:evenodd;stroke:#000000;stroke-width:0.12828468px;stroke-linecap:butt;stroke-linejoin:miter;stroke-opacity:1"
       inkscape:connector-curvature="0" />
    <path
       id="rect3605"
       d="M28.629132 67.597677L33.419559 67.597677L33.419559 71.214942L28.629132 71.214942L28.629132 67.597677"
       style="fill:none;fill-rule:evenodd;stroke:#000000;stroke-width:0.12828468px;stroke-linecap:butt;stroke-linejoin:miter;stroke-opacity:1"
       inkscape:connector-curvature="0" />
  </g>
  <g
     id="g834"
     inkscape:groupmode="layer"
     inkscape:label="B.Cu"
     transform="translate(50.504502,-61.113131)">
    <path
       id="path4935"
       d="m -30.226058,120.39019 v 30.40346 h 44.971803 v -30.40346 z m 7.139844,2.24899 h 10.948297 v 23.56029 h -10.948297 z"
       style="fill:#000000;fill-opacity:1;fill-rule:evenodd;stroke:#000000;stroke-width:0.12828468px;stroke-linecap:butt;stroke-linejoin:miter;stroke-opacity:1"
       inkscape:connector-curvature="0" />
  </g>
  <g
     id="g836"
     inkscape:groupmode="layer"
     inkscape:label="B.Mask"
     transform="translate(50.504502,-61.113131)">
    <path
       inkscape:connector-curvature="0"
       style="fill:#000000;fill-opacity:1;fill-rule:evenodd;stroke:#000000;stroke-width:0.12828468px;stroke-linecap:butt;stroke-linejoin:miter;stroke-opacity:1"
       d="m -30.226058,120.39019 v 30.40346 h 44.971803 v -30.40346 z m 7.139844,2.24899 h 10.948297 v 23.56029 h -10.948297 z"
       id="path4941" />
  </g>
  <g
     id="g838"
     inkscape:groupmode="layer"
     inkscape:label="B.Silk-disabled"
     transform="translate(50.504502,-61.113131)" />
  <g
     style="display:inline"
     id="g840"
     inkscape:groupmode="layer"
     inkscape:label="F.Cu"
     transform="translate(50.504502,-61.113131)">
    <path
       id="path4633"
       d="m -30.226058,120.39019 v 30.40346 h 44.971803 v -30.40346 z m 7.139844,2.24899 h 10.948297 v 23.56029 h -10.948297 z"
       style="fill:#000000;fill-opacity:1;fill-rule:evenodd;stroke:#000000;stroke-width:0.12828468px;stroke-linecap:butt;stroke-linejoin:miter;stroke-opacity:1"
       inkscape:connector-curvature="0" />
    <path
       sodipodi:nodetypes="ccccccccccccccccccccccssssssssssssssssssssssssssssssssssssssssssssssssssssssssssssssssssssssss"
       inkscape:connector-curvature="0"
       d="m -40.014026,136.92131 c -1.638811,0.0746 -2.175627,1.3161 -2.206318,2.32249 1.3e-4,1.29702 0.960582,2.31442 2.257604,2.31411 v -0.002 c 0.112442,-5.8e-4 0.140676,-0.11673 0.145481,-0.28026 0.0047,-0.16355 -0.0045,-0.30323 -0.15272,-0.3048 -0.757652,-0.008 -1.618899,-0.83412 -1.611825,-1.73951 0.007,-0.90993 0.860405,-1.70899 1.623339,-1.75626 0.137562,-0.0124 0.133664,-0.13447 0.137459,-0.29542 0.0037,-0.16087 -0.0025,-0.25114 -0.193041,-0.25829 z m 0.05964,-0.8948 c -1.803326,-5.8e-4 -3.265519,1.46115 -3.265517,3.26447 -2e-6,1.80333 1.451533,3.26175 3.254859,3.26117 0.147194,8.5e-4 0.147029,-0.20797 0.149627,-0.3379 0.0027,-0.12993 -0.0021,-0.32295 -0.142058,-0.32437 h -0.0031 c -1.419097,-0.0487 -2.544809,-1.21239 -2.546475,-2.63231 0.0011,-1.41994 1.126343,-2.58404 2.545428,-2.63333 0.13453,-0.004 0.148534,-0.17304 0.144265,-0.31539 -0.0043,-0.1423 -0.0064,-0.27825 -0.137026,-0.28207 z m 1.48746,4.09461 h 1.805923 c 0.04418,0 0.07975,-0.0355 0.07975,-0.0798 v -0.43406 c 0,-0.0441 -0.03558,-0.0798 -0.07975,-0.0798 h -1.805923 c -0.04418,0 -0.07975,0.0355 -0.07975,0.0798 v 0.43406 c 0,0.0441 0.03558,0.0798 0.07975,0.0798 z m 1.415875,2.4331 h 0.263864 c 0.114257,0 0.206254,-0.092 0.20624,-0.20624 l -3.05e-4,-2.61416 c -1.3e-5,-0.11425 -0.09198,-0.20624 -0.20624,-0.20624 h -0.263864 c -0.114257,0 -0.206252,0.092 -0.20624,0.20624 l 3.05e-4,2.61416 c 1.5e-5,0.11425 0.09198,0.20624 0.20624,0.20624 z m -1.289079,0 h 0.263862 c 0.114257,0 0.206254,-0.092 0.20624,-0.20624 l -3.05e-4,-2.61416 c -1.3e-5,-0.11425 -0.09198,-0.20624 -0.20624,-0.20624 h -0.263862 c -0.114257,0 -0.206253,0.092 -0.20624,0.20624 l 3.05e-4,2.61416 c 1.5e-5,0.11425 0.09198,0.20624 0.20624,0.20624 z m -0.126116,-4.07694 h 1.804556 c 0.04457,0 0.08043,0.0359 0.08043,0.0804 v 0.43267 c 0,0.0446 -0.03587,0.0804 -0.08043,0.0804 h -1.804556 c -0.04457,0 -0.08043,-0.0359 -0.08043,-0.0804 v -0.43267 c 0,-0.0445 0.03587,-0.0804 0.08043,-0.0804 z m 1.414886,-2.46087 h 0.263863 c 0.114257,0 0.206241,0.092 0.206241,0.20624 v 2.64193 c 0,0.11426 -0.09198,0.20624 -0.206241,0.20624 h -0.263863 c -0.114257,0 -0.20624,-0.092 -0.20624,-0.20624 v -2.64193 c 0,-0.11426 0.09198,-0.20624 0.20624,-0.20624 z m -1.289079,0 h 0.263861 c 0.114257,0 0.20624,0.092 0.20624,0.20624 v 2.64193 c 0,0.11426 -0.09198,0.20624 -0.20624,0.20624 h -0.263861 c -0.114257,0 -0.20624,-0.092 -0.20624,-0.20624 v -2.64193 c 0,-0.11426 0.09198,-0.20624 0.20624,-0.20624 z m -0.879165,0 h 0.196011 c 0.114257,0 0.206244,0.092 0.20624,0.20624 l -1.79e-4,6.12533 c -2e-6,0.11425 -0.09198,0.20624 -0.20624,0.20624 h -0.196011 c -0.114257,0 -0.206242,-0.092 -0.20624,-0.20624 l 1.79e-4,-6.12533 c 4e-6,-0.11426 0.09198,-0.20624 0.20624,-0.20624 z m 3.13788,0 h 0.19601 c 0.114257,0 0.20624,0.092 0.20624,0.20624 l 3.06e-4,6.12533 c 6e-6,0.11425 -0.09198,0.20624 -0.206241,0.20624 h -0.19601 c -0.114257,0 -0.20624,-0.092 -0.20624,-0.20624 l -3.05e-4,-6.12533 c -7e-6,-0.11426 0.09198,-0.20624 0.20624,-0.20624 z"
       style="opacity:1;fill:#000000;fill-opacity:1;stroke:none;stroke-width:0.3924872;stroke-miterlimit:4;stroke-dasharray:none;stroke-opacity:1"
       id="path4873" />
  </g>
  <g
     id="g842"
     inkscape:groupmode="layer"
     inkscape:label="F.Mask"
     transform="translate(50.504502,-61.113131)">
    <path
       inkscape:connector-curvature="0"
       style="fill:#000000;fill-opacity:1;fill-rule:evenodd;stroke:#000000;stroke-width:0.12828468px;stroke-linecap:butt;stroke-linejoin:miter;stroke-opacity:1"
       d="m -30.226058,120.39019 v 30.40346 h 44.971803 v -30.40346 z m 7.139844,2.24899 h 10.948297 v 23.56029 h -10.948297 z"
       id="rect3607" />
  </g>
  <g
     id="g844"
     inkscape:groupmode="layer"
     inkscape:label="F.Silk"
     transform="translate(50.504502,-61.113131)">
    <rect
       ry="2.5656939"
       rx="2.5656939"
       y="63.004784"
       x="-40.648861"
       height="50.317856"
       width="67.152138"
       id="rect3601"
       style="fill:#000000;fill-rule:evenodd;stroke:#000000;stroke-width:0.12828468px;stroke-linecap:butt;stroke-linejoin:miter;stroke-opacity:1" />
  </g>
  <g
     id="g846"
     inkscape:groupmode="layer"
     inkscape:label="Drill"
     transform="translate(50.504502,-61.113131)" />
</svg>
