<?xml version="1.0" encoding="UTF-8" standalone="no"?>
<!-- Created with Inkscape (http://www.inkscape.org/) -->

<svg
   xmlns:dc="http://purl.org/dc/elements/1.1/"
   xmlns:cc="http://creativecommons.org/ns#"
   xmlns:rdf="http://www.w3.org/1999/02/22-rdf-syntax-ns#"
   xmlns:svg="http://www.w3.org/2000/svg"
   xmlns="http://www.w3.org/2000/svg"
   xmlns:sodipodi="http://sodipodi.sourceforge.net/DTD/sodipodi-0.dtd"
   xmlns:inkscape="http://www.inkscape.org/namespaces/inkscape"
   width="41.567867mm"
   height="43.638458mm"
   id="svg2"
   version="1.1"
   inkscape:version="0.92.3 (2405546, 2018-03-11)"
   sodipodi:docname="3.5-disk.svg"
   viewBox="0 0 41.567868 43.638458">
  <metadata
     id="metadata26">
    <rdf:RDF>
      <cc:Work
         rdf:about="">
        <dc:format>image/svg+xml</dc:format>
        <dc:type
           rdf:resource="http://purl.org/dc/dcmitype/StillImage" />
        <dc:title></dc:title>
      </cc:Work>
    </rdf:RDF>
  </metadata>
  <defs
     id="defs24" />
  <sodipodi:namedview
     id="base"
     pagecolor="#ffffff"
     bordercolor="#666666"
     borderopacity="1.0"
     inkscape:pageopacity="0"
     inkscape:pageshadow="2"
     inkscape:zoom="4"
     inkscape:cx="72.455198"
     inkscape:cy="76.559489"
     inkscape:document-units="mm"
     inkscape:current-layer="g836"
     showgrid="true"
     inkscape:window-width="1920"
     inkscape:window-height="1137"
     inkscape:window-x="-8"
     inkscape:window-y="-8"
     inkscape:window-maximized="1"
     borderlayer="true"
     fit-margin-top="0"
     fit-margin-left="0"
     fit-margin-right="0"
     fit-margin-bottom="0"
     showguides="false">
    <inkscape:grid
       originy="81.113168"
       originx="50.504467"
       spacingx="2.54"
       spacingy="2.54"
       empspacing="1"
       type="xygrid"
       units="mm"
       id="grid824"
       enabled="false" />
  </sodipodi:namedview>
  <g
     transform="translate(50.504466,-107.47472)"
     inkscape:label="[fixed] BG"
     inkscape:groupmode="layer"
     sodipodi:insensitive="true"
     id="g830">
    <rect
       x="-50.504467"
       y="107.43385"
       width="41.519215"
       height="43.679317"
       style="fill:#ffffff;fill-opacity:1;stroke:none;stroke-width:0.40126887"
       id="rect828" />
  </g>
  <g
     transform="translate(50.504466,-107.47472)"
     inkscape:label="Edge.Cuts"
     inkscape:groupmode="layer"
     id="g832">
    <path
       sodipodi:nodetypes="cccaccaccccs"
       id="rect2826"
       d="M-50.18275 107.74135L-50.14731 107.70895L-50.10889 107.67955L-50.06776 107.65295L-50.02419 107.62905L-49.93079 107.58865L-49.83086 107.55745L-49.726546 107.53455L-49.620005 107.51885L-49.51339 107.50985L-49.408853 107.50585L-49.30855 107.50582L-49.21463 107.50882L-49.05457 107.52092L-48.945901 107.53402L-48.905851 107.54002L-10.370856 107.54002L-10.22539 107.53202L-10.070177 107.52902L-9.8836414 107.53402L-9.7841734 107.54102L-9.6835294 107.55212L-9.5839284 107.56782L-9.4875884 107.58872L-9.3967274 107.61552L-9.3135644 107.64882L-9.2403174 107.68932L-9.2081054 107.71242L-9.1792044 107.73762L-9.1352744 107.78942L-9.0977864 107.85202L-9.0662434 107.92342L-9.0401464 108.00172L-9.0189984 108.08502L-9.0023014 108.17132L-8.9895574 108.25862L-8.9802674 108.34502L-8.9700644 108.50729L-8.9677044 108.64253L-8.9705944 108.76946L-8.9705944 150.08425L-8.9681644 150.18575L-8.9698744 150.29399L-8.9777444 150.424L-8.9949324 150.56337L-9.0080094 150.63267L-9.0246004 150.69967L-9.0451014 150.76277L-9.0699074 150.82047L-9.0994134 150.87117L-9.1340144 150.91337L-9.1762864 150.94827L-9.2271444 150.97807L-9.2850274 151.00317L-9.3483754 151.02397L-9.4156264 151.04087L-9.4852194 151.05427L-9.6251877 151.07207L-9.7557915 151.08007L-9.8645421 151.08207L-9.9665289 151.08007L-48.635396 151.08007L-50.438342 149.23205L-50.438342 109.36442L-50.445042 109.31232L-50.458952 109.17124L-50.470962 108.96414L-50.473362 108.84299L-50.471862 108.71394L-50.465362 108.57984L-50.452672 108.44357L-50.432652 108.30799L-50.404172 108.17596L-50.366082 108.05036L-50.343072 107.99086L-50.317232 107.93406L-50.288422 107.88026L-50.256492 107.82986L-50.221302 107.78326L-50.182712 107.74076L-50.182712 107.74076"
       style="fill:none;fill-opacity:1;fill-rule:evenodd;stroke:#000000;stroke-width:0.06220162px;stroke-linecap:butt;stroke-linejoin:miter;stroke-opacity:1"
       inkscape:connector-curvature="0" />
    <path
       inkscape:connector-curvature="0"
       style="fill:none;fill-rule:evenodd;stroke:#000000;stroke-width:0.06220162px;stroke-linecap:butt;stroke-linejoin:miter;stroke-opacity:1"
       d="M-48.919487 110.61887L-46.596744 110.61887L-46.596744 112.37278L-48.919487 112.37278L-48.919487 110.61887"
       id="rect3603" />
    <path
       inkscape:connector-curvature="0"
       style="fill:none;fill-rule:evenodd;stroke:#000000;stroke-width:0.06220162px;stroke-linecap:butt;stroke-linejoin:miter;stroke-opacity:1"
       d="M-12.13482 110.61887L-9.8120774 110.61887L-9.8120774 112.37278L-12.13482 112.37278L-12.13482 110.61887"
       id="rect3605" />
  </g>
  <g
     transform="translate(50.504466,-107.47472)"
     inkscape:label="B.Cu"
     inkscape:groupmode="layer"
     id="g834">
    <path
       inkscape:connector-curvature="0"
       style="fill:#000000;fill-opacity:1;fill-rule:evenodd;stroke:#000000;stroke-width:0.06220162px;stroke-linecap:butt;stroke-linejoin:miter;stroke-opacity:1"
       d="m -40.672039,136.21647 v 14.74178 h 21.805557 v -14.74178 z m 3.461909,1.09047 h 5.30852 v 11.42372 h -5.30852 z"
       id="path4935"
       transform="translate(-2.9166668e-7,-1.0208333e-6)" />
  </g>
  <g
     transform="translate(50.504466,-107.47472)"
     inkscape:label="B.Mask"
     inkscape:groupmode="layer"
     id="g836">
    <path
       transform="translate(-2.9166668e-7,-1.0208333e-6)"
       id="path4941"
       d="m -40.672039,136.21647 v 14.74178 h 21.805557 v -14.74178 z m 3.461909,1.09047 h 5.30852 v 11.42372 h -5.30852 z"
       style="fill:#000000;fill-opacity:1;fill-rule:evenodd;stroke:#000000;stroke-width:0.06220162px;stroke-linecap:butt;stroke-linejoin:miter;stroke-opacity:1"
       inkscape:connector-curvature="0" />
  </g>
  <g
     transform="translate(50.504466,-107.47472)"
     inkscape:label="B.Silk-disabled"
     inkscape:groupmode="layer"
     id="g838" />
  <g
     transform="translate(50.504466,-107.47472)"
     inkscape:label="F.Cu"
     inkscape:groupmode="layer"
     id="g840"
     style="display:inline">
    <path
       inkscape:connector-curvature="0"
       style="fill:#000000;fill-opacity:1;fill-rule:evenodd;stroke:#000000;stroke-width:0.06220162px;stroke-linecap:butt;stroke-linejoin:miter;stroke-opacity:1"
       d="m -40.672039,136.21647 v 14.74178 h 21.805557 v -14.74178 z m 3.461909,1.09047 h 5.30852 v 11.42372 h -5.30852 z"
       id="path4633"
       transform="translate(-2.9166668e-7,-1.0208333e-6)" />
    <path
       transform="translate(-2.9166668e-7,-1.0208333e-6)"
       id="path4873"
       style="opacity:1;fill:#000000;fill-opacity:1;stroke:none;stroke-width:0.19030595;stroke-miterlimit:4;stroke-dasharray:none;stroke-opacity:1"
       d="m -45.417948,144.23194 c -0.794613,0.0362 -1.0549,0.63814 -1.069781,1.12611 6.3e-5,0.62889 0.465759,1.1222 1.094648,1.12205 v -0.001 c 0.05452,-2.8e-4 0.06821,-0.0566 0.07054,-0.13589 0.0023,-0.0793 -0.0022,-0.14703 -0.07405,-0.14779 -0.367364,-0.004 -0.784958,-0.40444 -0.781528,-0.84344 0.0034,-0.4412 0.417186,-0.82864 0.787111,-0.85156 0.0667,-0.006 0.06481,-0.0652 0.06665,-0.14324 0.0018,-0.078 -0.0012,-0.12177 -0.0936,-0.12524 z m 0.02892,-0.43386 c -0.874382,-2.8e-4 -1.583358,0.70847 -1.583357,1.58285 -10e-7,0.87438 0.703807,1.58153 1.578189,1.58125 0.07137,4.1e-4 0.07129,-0.10084 0.07255,-0.16384 0.0013,-0.063 -10e-4,-0.15659 -0.06888,-0.15728 h -0.0015 c -0.68808,-0.0236 -1.233906,-0.58785 -1.234714,-1.27633 5.3e-4,-0.68849 0.546132,-1.25293 1.234206,-1.27683 0.06523,-0.002 0.07202,-0.0839 0.06995,-0.15292 -0.0021,-0.069 -0.0031,-0.13492 -0.06644,-0.13677 z m 0.721227,1.98536 h 0.875641 c 0.02142,0 0.03867,-0.0172 0.03867,-0.0387 v -0.21046 c 0,-0.0214 -0.01725,-0.0387 -0.03867,-0.0387 h -0.875641 c -0.02142,0 -0.03867,0.0172 -0.03867,0.0387 v 0.21046 c 0,0.0214 0.01725,0.0387 0.03867,0.0387 z m 0.686518,1.17974 h 0.12794 c 0.0554,0 0.100007,-0.0446 0.1,-0.1 l -1.48e-4,-1.26753 c -6e-6,-0.0554 -0.0446,-0.1 -0.1,-0.1 h -0.12794 c -0.0554,0 -0.100006,0.0446 -0.1,0.1 l 1.48e-4,1.26753 c 7e-6,0.0554 0.0446,0.1 0.1,0.1 z m -0.625038,0 h 0.127939 c 0.0554,0 0.100007,-0.0446 0.1,-0.1 l -1.48e-4,-1.26753 c -6e-6,-0.0554 -0.0446,-0.1 -0.1,-0.1 h -0.127939 c -0.0554,0 -0.100006,0.0446 -0.1,0.1 l 1.48e-4,1.26753 c 7e-6,0.0554 0.0446,0.1 0.1,0.1 z m -0.06115,-1.97679 h 0.874978 c 0.02161,0 0.039,0.0174 0.039,0.039 v 0.20979 c 0,0.0216 -0.01739,0.039 -0.039,0.039 h -0.874978 c -0.02161,0 -0.039,-0.0174 -0.039,-0.039 v -0.20979 c 0,-0.0216 0.01739,-0.039 0.039,-0.039 z m 0.686038,-1.19321 h 0.12794 c 0.0554,0 0.1,0.0446 0.1,0.1 v 1.281 c 0,0.0554 -0.0446,0.1 -0.1,0.1 h -0.12794 c -0.0554,0 -0.1,-0.0446 -0.1,-0.1 v -1.281 c 0,-0.0554 0.0446,-0.1 0.1,-0.1 z m -0.625038,0 h 0.127939 c 0.0554,0 0.1,0.0446 0.1,0.1 v 1.281 c 0,0.0554 -0.0446,0.1 -0.1,0.1 h -0.127939 c -0.0554,0 -0.1,-0.0446 -0.1,-0.1 v -1.281 c 0,-0.0554 0.0446,-0.1 0.1,-0.1 z m -0.426282,0 h 0.09504 c 0.0554,0 0.100002,0.0446 0.1,0.1 l -8.7e-5,2.97 c -10e-7,0.0554 -0.0446,0.1 -0.1,0.1 h -0.09504 c -0.0554,0 -0.100001,-0.0446 -0.1,-0.1 l 8.7e-5,-2.97 c 2e-6,-0.0554 0.0446,-0.1 0.1,-0.1 z m 1.521469,0 h 0.09504 c 0.0554,0 0.1,0.0446 0.1,0.1 l 1.48e-4,2.97 c 3e-6,0.0554 -0.0446,0.1 -0.1,0.1 h -0.09504 c -0.0554,0 -0.1,-0.0446 -0.1,-0.1 l -1.48e-4,-2.97 c -3e-6,-0.0554 0.0446,-0.1 0.1,-0.1 z"
       inkscape:connector-curvature="0"
       sodipodi:nodetypes="ccccccccccccccccccccccssssssssssssssssssssssssssssssssssssssssssssssssssssssssssssssssssssssss" />
  </g>
  <g
     transform="translate(50.504466,-107.47472)"
     inkscape:label="F.Mask"
     inkscape:groupmode="layer"
     id="g842">
    <path
       id="rect3607"
       d="m -40.672039,136.21647 v 14.74178 h 21.805557 v -14.74178 z m 3.461909,1.09047 h 5.30852 v 11.42372 h -5.30852 z"
       style="fill:#000000;fill-opacity:1;fill-rule:evenodd;stroke:#000000;stroke-width:0.06220162px;stroke-linecap:butt;stroke-linejoin:miter;stroke-opacity:1"
       inkscape:connector-curvature="0"
       transform="translate(-2.9166668e-7,-1.0208333e-6)" />
  </g>
  <g
     transform="translate(50.504466,-107.47472)"
     inkscape:label="F.Silk"
     inkscape:groupmode="layer"
     id="g844">
    <rect
       style="fill:#000000;fill-rule:evenodd;stroke:#000000;stroke-width:0.06220162px;stroke-linecap:butt;stroke-linejoin:miter;stroke-opacity:1"
       id="rect3601"
       width="32.560173"
       height="24.397707"
       x="-45.725761"
       y="108.39191"
       rx="1.2440325"
       ry="1.2440325"
       transform="translate(-2.9166668e-7,-1.0208333e-6)" />
  </g>
  <g
     transform="translate(50.504466,-107.47472)"
     inkscape:label="Drill"
     inkscape:groupmode="layer"
     id="g846" />
</svg>
