<?xml version="1.0" encoding="UTF-8" standalone="no"?>
<svg
   xmlns:dc="http://purl.org/dc/elements/1.1/"
   xmlns:cc="http://creativecommons.org/ns#"
   xmlns:rdf="http://www.w3.org/1999/02/22-rdf-syntax-ns#"
   xmlns:svg="http://www.w3.org/2000/svg"
   xmlns="http://www.w3.org/2000/svg"
   xmlns:sodipodi="http://sodipodi.sourceforge.net/DTD/sodipodi-0.dtd"
   xmlns:inkscape="http://www.inkscape.org/namespaces/inkscape"
   viewBox="0 0 0.93764359 1.3476631"
   version="1.1"
   id="svg824"
   sodipodi:docname="lock.svg"
   width="0.93764359mm"
   height="1.347663mm"
   inkscape:version="0.92.3 (2405546, 2018-03-11)">
  <metadata
     id="metadata10">
    <rdf:RDF>
      <cc:Work
         rdf:about="">
        <dc:format>image/svg+xml</dc:format>
        <dc:type
           rdf:resource="http://purl.org/dc/dcmitype/StillImage" />
        <dc:title />
      </cc:Work>
    </rdf:RDF>
  </metadata>
  <defs
     id="defs8" />
  <sodipodi:namedview
     pagecolor="#ffffff"
     bordercolor="#666666"
     borderopacity="1"
     objecttolerance="10"
     gridtolerance="10"
     guidetolerance="10"
     inkscape:pageopacity="0"
     inkscape:pageshadow="2"
     inkscape:window-width="1920"
     inkscape:window-height="1137"
     id="namedview826"
     showgrid="true"
     inkscape:zoom="78.666667"
     inkscape:cx="2.2517901"
     inkscape:cy="2.871043"
     inkscape:window-x="-8"
     inkscape:window-y="-8"
     inkscape:window-maximized="1"
     inkscape:current-layer="g865"
     borderlayer="true"
     inkscape:document-units="mm"
     fit-margin-top="0"
     fit-margin-left="0"
     fit-margin-right="0"
     fit-margin-bottom="0">
    <inkscape:grid
       originy="1.2316283e-007"
       originx="0"
       spacingx="2.54"
       spacingy="2.54"
       empspacing="1"
       type="xygrid"
       units="mm"
       id="grid846"
       enabled="false" />
  </sodipodi:namedview>
  <g
     inkscape:label="F.SilkS"
     inkscape:groupmode="layer"
     id="g865">
    <path
       d="m 0.46877142,-5.145e-4 -0.0829115,0.00837 -0.0772805,0.023997 -0.0699777,0.037966 -0.0610032,0.050273 -0.0503569,0.060919 -0.03803898,0.069904 -0.0240493,0.077229 -0.0083879,0.082892 V 0.5785828 L 0.03425004,0.587548 0.01625311,0.6032307 0.004321,0.6240998 0,0.6486239 v 0.6271646 l 0.00565965,0.027941 0.0154221,0.022849 0.02284926,0.015422 0.02794114,0.00566 h 0.79471372 l 0.0278692,-0.00569 0.0226919,-0.015477 0.0152649,-0.02286 L 0.938,1.2757885 V 0.6486238 L 0.933679,0.6240998 0.9217469,0.6032308 0.90375,0.5875478 0.8812346,0.5785778 V 0.4110337 L 0.8728466,0.3281417 0.8487975,0.2509127 0.8107587,0.1810087 0.7604019,0.1200897 0.6993988,0.0698167 0.6294212,0.0318507 0.5521407,0.0078537 0.4692292,-5.163e-4 h -4.5781e-4 m 0,0.1432866 h 4.5774e-4 l 0.0540092,0.00545 0.0503723,0.015634 0.0456368,0.024737 0.0398028,0.03276 0.0328701,0.039704 0.0248388,0.045568 0.0157089,0.050352 0.00548,0.054057 V 0.5772095 H 0.20050976 V 0.4110337 l 0.005451,-0.054057 0.0156337,-0.050352 0.0247366,-0.045568 0.0327599,-0.039704 0.0397036,-0.03276 0.0455677,-0.024737 0.0503521,-0.015634 0.0540569,-0.00545 v 0 M 0.469229,0.7974035 h 4.5587e-4 l 0.0391711,0.00785 0.0320161,0.021443 0.0216006,0.031859 0.007925,0.0391 -0.008586,0.040349 -0.0230012,0.032438 0.0265517,0.1428288 -0.002205,0.00986 -0.009239,0.00388 H 0.3863702 l -0.00924,-0.00388 -0.002205,-0.00986 0.0265514,-0.141455 -0.0240391,-0.032862 -0.008921,-0.0413 0.007925,-0.039099 0.0216006,-0.031859 0.0320161,-0.021443 0.0391713,-0.00785 v 0"
       inkscape:connector-curvature="0"
       id="path4" />
  </g>
</svg>
